<svg width="30" height="30" viewBox="0 0 30 30" fill="none" xmlns="http://www.w3.org/2000/svg">
<path d="M10.9375 7.8125C10.9375 6.73506 11.3655 5.70175 12.1274 4.93988C12.8892 4.17801 13.9226 3.75 15 3.75C16.0774 3.75 17.1108 4.17801 17.8726 4.93988C18.6345 5.70175 19.0625 6.73506 19.0625 7.8125C19.0625 8.88994 18.6345 9.92325 17.8726 10.6851C17.1108 11.447 16.0774 11.875 15 11.875C13.9226 11.875 12.8892 11.447 12.1274 10.6851C11.3655 9.92325 10.9375 8.88994 10.9375 7.8125ZM6.25 6.25C5.25544 6.25 4.30161 6.64509 3.59835 7.34835C2.89509 8.05161 2.5 9.00544 2.5 10C2.5 10.9946 2.89509 11.9484 3.59835 12.6517C4.30161 13.3549 5.25544 13.75 6.25 13.75C7.24456 13.75 8.19839 13.3549 8.90165 12.6517C9.60491 11.9484 10 10.9946 10 10C10 9.00544 9.60491 8.05161 8.90165 7.34835C8.19839 6.64509 7.24456 6.25 6.25 6.25ZM23.75 6.25C22.7554 6.25 21.8016 6.64509 21.0983 7.34835C20.3951 8.05161 20 9.00544 20 10C20 10.9946 20.3951 11.9484 21.0983 12.6517C21.8016 13.3549 22.7554 13.75 23.75 13.75C24.7446 13.75 25.6984 13.3549 26.4017 12.6517C27.1049 11.9484 27.5 10.9946 27.5 10C27.5 9.00544 27.1049 8.05161 26.4017 7.34835C25.6984 6.64509 24.7446 6.25 23.75 6.25ZM11.5625 13.75C10.9823 13.75 10.4259 13.9805 10.0157 14.3907C9.60547 14.8009 9.375 15.3573 9.375 15.9375V20.625C9.375 22.1168 9.96763 23.5476 11.0225 24.6025C12.0774 25.6574 13.5082 26.25 15 26.25H15.0275C14.3488 25.1871 13.9268 23.9809 13.7947 22.7268C13.6626 21.4726 13.8241 20.205 14.2665 19.024C14.7088 17.8431 15.4199 16.7813 16.3434 15.9225C17.2669 15.0638 18.3776 14.4317 19.5875 14.0763C19.2422 13.8622 18.8438 13.7492 18.4375 13.75H11.5625ZM8.2625 14.9725C8.17167 15.28 8.12583 15.6017 8.125 15.9375V20.625C8.12398 21.6484 8.35188 22.6592 8.79202 23.5831C9.23216 24.5071 9.87339 25.3209 10.6687 25.965C9.94134 26.2062 9.17231 26.2962 8.40886 26.2295C7.64541 26.1628 6.90365 25.9408 6.22908 25.5771C5.55451 25.2134 4.96137 24.7157 4.48606 24.1146C4.01075 23.5134 3.66329 22.8215 3.465 22.0813L2.575 18.7612C2.50051 18.4837 2.48142 18.1943 2.51882 17.9094C2.55621 17.6245 2.64937 17.3498 2.79296 17.1009C2.93655 16.8521 3.12776 16.6339 3.35567 16.459C3.58358 16.284 3.84373 16.1557 4.12125 16.0812L8.2625 14.9725ZM28.75 21.875C28.75 20.0516 28.0257 18.303 26.7364 17.0136C25.447 15.7243 23.6984 15 21.875 15C20.0516 15 18.303 15.7243 17.0136 17.0136C15.7243 18.303 15 20.0516 15 21.875C15 23.6984 15.7243 25.447 17.0136 26.7364C18.303 28.0257 20.0516 28.75 21.875 28.75C23.6984 28.75 25.447 28.0257 26.7364 26.7364C28.0257 25.447 28.75 23.6984 28.75 21.875ZM22.5 22.5L22.5012 25.6287C22.5012 25.7945 22.4354 25.9535 22.3182 26.0707C22.201 26.1879 22.042 26.2537 21.8762 26.2537C21.7105 26.2537 21.5515 26.1879 21.4343 26.0707C21.3171 25.9535 21.2512 25.7945 21.2512 25.6287V22.5H18.12C17.9542 22.5 17.7953 22.4342 17.6781 22.3169C17.5608 22.1997 17.495 22.0408 17.495 21.875C17.495 21.7092 17.5608 21.5503 17.6781 21.4331C17.7953 21.3158 17.9542 21.25 18.12 21.25H21.25V18.125C21.25 17.9592 21.3158 17.8003 21.4331 17.6831C21.5503 17.5658 21.7092 17.5 21.875 17.5C22.0408 17.5 22.1997 17.5658 22.3169 17.6831C22.4342 17.8003 22.5 17.9592 22.5 18.125V21.25H25.6213C25.787 21.25 25.946 21.3158 26.0632 21.4331C26.1804 21.5503 26.2463 21.7092 26.2463 21.875C26.2463 22.0408 26.1804 22.1997 26.0632 22.3169C25.946 22.4342 25.787 22.5 25.6213 22.5H22.5Z" fill="#DC7052"/>
</svg>
