<svg width="16" height="16" viewBox="0 0 16 16" fill="none" xmlns="http://www.w3.org/2000/svg">
<path d="M9.0337 16H5.73449C5.52434 16 5.46217 15.8295 5.46217 15.6191V8.88889H4.21177C4.00162 8.88889 3.93945 8.71835 3.93945 8.50797V5.71427C3.93945 5.5039 4.00162 5.33333 4.21177 5.33333H5.72003C5.71851 3.10915 6.11164 1.62397 6.91791 0.800444C7.60641 0.0969412 8.44011 0 9.23825 0H11.5716C11.7817 0 12.0606 0.170536 12.0606 0.380941V3.42868C12.0606 3.63906 11.7817 3.80959 11.5716 3.80959H9.52277V5.33333H11.5716C11.7817 5.33333 12.0606 5.50387 12.0606 5.71427V8.50797C12.0606 8.71835 11.7817 8.88889 11.5716 8.88889H9.52277V15.6191C9.52251 15.8295 9.24387 16 9.0337 16ZM6.2233 15.2381H8.76115V8.50797C8.76115 8.29757 8.82335 8.12703 9.03347 8.12703H11.299V6.09522H9.03347C8.82335 6.09522 8.76115 5.92468 8.76115 5.71427V3.42868C8.76115 3.2183 8.82335 3.04774 9.03347 3.04774H11.299V0.761882H9.23801C8.64923 0.761882 7.97796 0.806039 7.46152 1.33367C6.7692 2.04047 6.44053 3.51169 6.48494 5.70667C6.48698 5.80894 6.4479 5.90792 6.37608 5.98102C6.3045 6.05409 6.2068 6.09522 6.10429 6.09522H4.7006V8.12703H5.73428C5.94442 8.12703 6.22332 8.29757 6.22332 8.50797V15.2381H6.2233Z" fill="white"/>
</svg>
