<svg width="30" height="30" viewBox="0 0 30 30" fill="none" xmlns="http://www.w3.org/2000/svg">
<path d="M25.0656 13.6715C24.4589 12.3041 23.577 11.0767 22.475 10.0663L21.5656 9.23067C21.5347 9.20307 21.4976 9.18349 21.4574 9.17364C21.4172 9.16379 21.3752 9.16397 21.3351 9.17416C21.295 9.18436 21.258 9.20426 21.2273 9.23212C21.1967 9.25998 21.1734 9.29494 21.1594 9.33394L20.7531 10.5013C20.5 11.2336 20.0344 11.9815 19.375 12.717C19.3312 12.7639 19.2812 12.7764 19.2469 12.7796C19.2125 12.7827 19.1594 12.7764 19.1125 12.7326C19.0687 12.6951 19.0469 12.6387 19.05 12.5824C19.1656 10.6984 18.6031 8.57346 17.3719 6.26073C16.3531 4.33919 14.9375 2.84014 13.1687 1.79487L11.8781 1.03439C11.7094 0.934242 11.4937 1.06568 11.5031 1.26284L11.5719 2.76503C11.6187 3.79152 11.5 4.69908 11.2187 5.45331C10.875 6.37652 10.3812 7.23402 9.74999 8.00388C9.3107 8.53893 8.81279 9.02287 8.26562 9.4466C6.94783 10.4611 5.87629 11.761 5.13125 13.249C4.38804 14.75 4.00091 16.4025 4 18.0779C4 19.555 4.29062 20.9852 4.86562 22.3341C5.42083 23.6327 6.22206 24.8113 7.225 25.8047C8.2375 26.8062 9.41249 27.5948 10.7219 28.1425C12.0781 28.7121 13.5156 29 15 29C16.4844 29 17.9219 28.7121 19.2781 28.1456C20.5843 27.6012 21.772 26.8071 22.775 25.8079C23.7875 24.8064 24.5812 23.636 25.1344 22.3372C25.7085 20.9921 26.003 19.5439 26 18.081C26 16.5538 25.6875 15.0704 25.0656 13.6715Z" fill="#DC7052"/>
</svg>
