<svg width="30" height="30" viewBox="0 0 30 30" fill="none" xmlns="http://www.w3.org/2000/svg">
<path d="M25.2844 7.5943C24.2385 5.86477 22.3211 5 20.2294 5H9.77065C7.67891 5 5.76148 5.86477 4.71561 7.5943C0.706437 13.6477 -0.165121 22.8142 2.62387 24.7167C5.41285 26.6192 11.6881 18.3174 15 18.3174C18.3119 18.3174 24.4128 26.6192 27.3761 24.7167C30.1651 22.8142 29.2936 13.6477 25.2844 7.5943ZM11.5138 13.6477H9.77065V15.3772H8.02753V13.6477H6.28441V11.9181H8.02753V10.1886H9.77065V11.9181H11.5138V13.6477ZM20.9266 14.5124C20.9266 15.3772 20.2294 16.069 19.3578 16.069C18.4862 16.069 17.789 15.3772 17.789 14.5124C17.789 13.6477 18.4862 12.9559 19.3578 12.9559C20.2294 12.9559 20.9266 13.6477 20.9266 14.5124ZM24.2385 11.0534C24.2385 11.9181 23.5413 12.6099 22.6697 12.6099C21.7982 12.6099 21.1009 11.9181 21.1009 11.0534C21.1009 10.1886 21.7982 9.49679 22.6697 9.49679C23.5413 9.49679 24.2385 10.1886 24.2385 11.0534Z" fill="#DC7052"/>
</svg>
