<svg width="16" height="16" viewBox="0 0 16 16" fill="none" xmlns="http://www.w3.org/2000/svg">
<g clip-path="url(#clip0_171_1042)">
<path d="M2.16 0.132812C1.57334 0.132812 1.04 0.346156 0.64 0.746156C0.213344 1.17281 0 1.70613 0 2.26612C0 2.85278 0.24 3.38612 0.64 3.78612C1.04 4.18612 1.6 4.42613 2.13334 4.39947C2.13334 4.39947 2.16 4.39947 2.18669 4.39947C2.72003 4.39947 3.22669 4.18612 3.62669 3.78612C4.02669 3.38612 4.26669 2.85278 4.26669 2.26612C4.29334 1.70613 4.05334 1.17278 3.65334 0.772781C3.25334 0.346125 2.72 0.132812 2.16 0.132812ZM3.25334 3.41281C2.96 3.70616 2.56 3.89281 2.13334 3.86616C1.73334 3.86616 1.30669 3.70616 1.01334 3.41281C0.693344 3.11947 0.533344 2.69281 0.533344 2.26616C0.533344 1.8395 0.693344 1.4395 1.01334 1.1195C1.30669 0.826156 1.70669 0.666156 2.16 0.666156C2.56 0.666156 2.96 0.826156 3.25334 1.1195C3.57334 1.4395 3.73334 1.8395 3.73334 2.26616C3.73334 2.69281 3.57334 3.11947 3.25334 3.41281Z" fill="white"/>
<path d="M3.19995 4.93359H1.03995C0.613289 4.93359 0.266602 5.28025 0.266602 5.73359V15.0669C0.266602 15.4936 0.639945 15.8669 1.0666 15.8669H3.19995C3.6266 15.8669 3.99995 15.4936 3.99995 15.0936V5.73359C3.99995 5.30691 3.6266 4.93359 3.19995 4.93359ZM3.4666 15.0936C3.4666 15.2269 3.33326 15.3336 3.19995 15.3336H1.0666C0.933258 15.3336 0.799945 15.2002 0.799945 15.0669V5.73359C0.799945 5.60025 0.906601 5.46694 1.03995 5.46694H3.19995C3.33329 5.46694 3.4666 5.60028 3.4666 5.73359V15.0936Z" fill="white"/>
<path d="M12.2666 4.66602H11.7066C10.6666 4.66602 9.67998 5.11936 9.03998 5.83936V5.46602C9.03998 5.19936 8.77333 4.93267 8.50664 4.93267H5.83998C5.59998 4.93267 5.30664 5.14602 5.30664 5.43933V15.386C5.30664 15.6793 5.59998 15.866 5.83998 15.866H8.77333C9.01333 15.866 9.30667 15.6793 9.30667 15.386V9.62599C9.30667 8.74599 9.94667 8.05264 10.7733 8.05264C11.2 8.05264 11.6 8.21264 11.8933 8.50599C12.16 8.74599 12.2667 9.11933 12.2667 9.59933V15.3327C12.2667 15.5993 12.5333 15.866 12.8 15.866H15.4667C15.7333 15.866 16 15.5994 16 15.3327V8.45267C16 6.31936 14.3733 4.66602 12.2666 4.66602ZM15.4666 15.306L15.44 15.3327H12.8266L12.8 9.59936C12.8 8.95936 12.64 8.47936 12.2933 8.1327C11.8933 7.7327 11.36 7.51936 10.8 7.51936C9.67998 7.54602 8.79998 8.4527 8.79998 9.62602V15.3327H5.86664V5.46602H8.50664L8.5333 5.49267V7.17267L9.2533 6.45267L9.27995 6.42602C9.8133 5.67936 10.7466 5.19936 11.7333 5.19936H12.2933C14.08 5.19936 15.4666 6.63936 15.4666 8.4527V15.306Z" fill="white"/>
</g>
<defs>
<clipPath id="clip0_171_1042">
<rect width="16" height="16" fill="white"/>
</clipPath>
</defs>
</svg>
