<svg width="22" height="16" viewBox="0 0 22 16" fill="none" xmlns="http://www.w3.org/2000/svg">
<path d="M17.4476 0H4.33079C1.94272 0 0 1.94894 0 4.34412V11.6559C0 14.0515 1.94272 16 4.33079 16H17.4476C19.8357 16 21.7784 14.0511 21.7784 11.6559V4.34412C21.7784 1.94894 19.8357 0 17.4476 0ZM20.8895 11.6563C20.8895 13.5617 19.3454 15.1115 17.4476 15.1115H4.33079C2.43296 15.1115 0.888914 13.5613 0.888914 11.6563V4.34412C0.888914 2.43918 2.43296 0.888914 4.33079 0.888914H17.4476C19.3454 0.888914 20.8895 2.43918 20.8895 4.34412V11.6563Z" fill="white"/>
<path d="M14.8269 7.83748L8.66891 4.23071C8.53201 4.15071 8.36179 4.14937 8.22356 4.22849C8.08534 4.3076 8 4.45471 8 4.61427V11.8274C8 11.9865 8.08534 12.134 8.22312 12.2132C8.29156 12.2523 8.36801 12.2718 8.44446 12.2718C8.52224 12.2718 8.59957 12.2514 8.66891 12.2109L14.8269 8.60505C14.9629 8.5255 15.0469 8.37927 15.0469 8.22149C15.0469 8.0637 14.9633 7.91703 14.8269 7.83748ZM8.88891 11.0518V5.38941L13.7228 8.22104L8.88891 11.0518Z" fill="white"/>
</svg>
